<?xml version="1.0" encoding="UTF-8" standalone="no"?>
<!DOCTYPE svg PUBLIC "-//W3C//DTD SVG 1.1//EN"
 "http://www.w3.org/Graphics/SVG/1.1/DTD/svg11.dtd">
<!-- Generated by graphviz version 2.30.1 (20150306.0020)
 -->
<!-- Title: G Pages: 1 -->
<svg width="1050pt" height="898pt"
 viewBox="0.00 0.00 1050.30 898.00" xmlns="http://www.w3.org/2000/svg" xmlns:xlink="http://www.w3.org/1999/xlink">
<g id="graph0" class="graph" transform="scale(1 1) rotate(0) translate(4 894)">
<title>G</title>
<polygon fill="white" stroke="white" points="-4,5 -4,-894 1047.3,-894 1047.3,5 -4,5"/>
<g id="clust1" class="cluster"><title>cluster_root</title>
<g id="a_clust1"><a xlink:title="eventq_index&#61;0&#10;full_system&#61;false&#10;sim_quantum&#61;0&#10;time_sync_enable&#61;false&#10;time_sync_period&#61;100000000000&#10;time_sync_spin_threshold&#61;100000000">
<path fill="#bab6ae" stroke="#000000" d="M20,-8C20,-8 1002,-8 1002,-8 1008,-8 1014,-14 1014,-20 1014,-20 1014,-870 1014,-870 1014,-876 1008,-882 1002,-882 1002,-882 20,-882 20,-882 14,-882 8,-876 8,-870 8,-870 8,-20 8,-20 8,-14 14,-8 20,-8"/>
<text text-anchor="middle" x="511" y="-866.8" font-family="Arial" font-size="14.00" fill="#000000">root </text>
<text text-anchor="middle" x="511" y="-851.8" font-family="Arial" font-size="14.00" fill="#000000">: Root</text>
</a>
</g>
</g>
<g id="clust2" class="cluster"><title>cluster_system</title>
<g id="a_clust2"><a xlink:title="boot_osflags&#61;a&#10;cache_line_size&#61;64&#10;clk_domain&#61;system.clk_domain&#10;eventq_index&#61;0&#10;exit_on_work_items&#61;false&#10;init_param&#61;0&#10;kernel&#61;&#10;kernel_addr_check&#61;true&#10;load_addr_mask&#61;1099511627775&#10;load_offset&#61;0&#10;mem_mode&#61;timing&#10;mem_ranges&#61;0:536870911&#10;memories&#61;system.mem_ctrls&#10;mmap_using_noreserve&#61;false&#10;multi_thread&#61;false&#10;num_work_ids&#61;16&#10;readfile&#61;&#10;symbolfile&#61;&#10;work_begin_ckpt_count&#61;0&#10;work_begin_cpu_id_exit&#61;&#45;1&#10;work_begin_exit_count&#61;0&#10;work_cpus_ckpt_count&#61;0&#10;work_end_ckpt_count&#61;0&#10;work_end_exit_count&#61;0&#10;work_item_id&#61;&#45;1">
<path fill="#e4e7eb" stroke="#000000" d="M28,-16C28,-16 994,-16 994,-16 1000,-16 1006,-22 1006,-28 1006,-28 1006,-824 1006,-824 1006,-830 1000,-836 994,-836 994,-836 28,-836 28,-836 22,-836 16,-830 16,-824 16,-824 16,-28 16,-28 16,-22 22,-16 28,-16"/>
<text text-anchor="middle" x="511" y="-820.8" font-family="Arial" font-size="14.00" fill="#000000">system </text>
<text text-anchor="middle" x="511" y="-805.8" font-family="Arial" font-size="14.00" fill="#000000">: System</text>
</a>
</g>
</g>
<g id="clust3" class="cluster"><title>cluster_system_membus</title>
<g id="a_clust3"><a xlink:title="clk_domain&#61;system.clk_domain&#10;eventq_index&#61;0&#10;forward_latency&#61;4&#10;frontend_latency&#61;3&#10;response_latency&#61;2&#10;snoop_filter&#61;Null&#10;snoop_response_latency&#61;4&#10;system&#61;system&#10;use_default_range&#61;false&#10;width&#61;16">
<path fill="#6f798c" stroke="#000000" d="M519,-612C519,-612 643,-612 643,-612 649,-612 655,-618 655,-624 655,-624 655,-692 655,-692 655,-698 649,-704 643,-704 643,-704 519,-704 519,-704 513,-704 507,-698 507,-692 507,-692 507,-624 507,-624 507,-618 513,-612 519,-612"/>
<text text-anchor="middle" x="581" y="-688.8" font-family="Arial" font-size="14.00" fill="#000000">membus </text>
<text text-anchor="middle" x="581" y="-673.8" font-family="Arial" font-size="14.00" fill="#000000">: SystemXBar</text>
</a>
</g>
</g>
<g id="clust4" class="cluster"><title>cluster_system_tol2bus</title>
<g id="a_clust4"><a xlink:title="clk_domain&#61;system.cpu_clk_domain&#10;eventq_index&#61;0&#10;forward_latency&#61;0&#10;frontend_latency&#61;1&#10;response_latency&#61;1&#10;snoop_filter&#61;system.tol2bus.snoop_filter&#10;snoop_response_latency&#61;1&#10;system&#61;system&#10;use_default_range&#61;false&#10;width&#61;32">
<path fill="#6f798c" stroke="#000000" d="M537,-156C537,-156 661,-156 661,-156 667,-156 673,-162 673,-168 673,-168 673,-236 673,-236 673,-242 667,-248 661,-248 661,-248 537,-248 537,-248 531,-248 525,-242 525,-236 525,-236 525,-168 525,-168 525,-162 531,-156 537,-156"/>
<text text-anchor="middle" x="599" y="-232.8" font-family="Arial" font-size="14.00" fill="#000000">tol2bus </text>
<text text-anchor="middle" x="599" y="-217.8" font-family="Arial" font-size="14.00" fill="#000000">: L2XBar</text>
</a>
</g>
</g>
<g id="clust8" class="cluster"><title>cluster_system_l2</title>
<g id="a_clust8"><a xlink:title="addr_ranges&#61;0:18446744073709551615&#10;assoc&#61;1&#10;clk_domain&#61;system.cpu_clk_domain&#10;clusivity&#61;mostly_incl&#10;demand_mshr_reserve&#61;1&#10;eventq_index&#61;0&#10;forward_snoops&#61;true&#10;hit_latency&#61;20&#10;is_read_only&#61;false&#10;max_miss_count&#61;0&#10;mshrs&#61;20&#10;prefetch_on_access&#61;false&#10;prefetcher&#61;Null&#10;response_latency&#61;20&#10;sequential_access&#61;false&#10;size&#61;1048576&#10;system&#61;system&#10;tags&#61;system.l2.tags&#10;tgts_per_mshr&#61;12&#10;write_buffers&#61;8&#10;writeback_clean&#61;false">
<path fill="#bab6ae" stroke="#000000" d="M713,-24C713,-24 875,-24 875,-24 881,-24 887,-30 887,-36 887,-36 887,-104 887,-104 887,-110 881,-116 875,-116 875,-116 713,-116 713,-116 707,-116 701,-110 701,-104 701,-104 701,-36 701,-36 701,-30 707,-24 713,-24"/>
<text text-anchor="middle" x="794" y="-100.8" font-family="Arial" font-size="14.00" fill="#000000">l2 </text>
<text text-anchor="middle" x="794" y="-85.8" font-family="Arial" font-size="14.00" fill="#000000">: L2Cache</text>
</a>
</g>
</g>
<g id="clust11" class="cluster"><title>cluster_system_mem_ctrls</title>
<g id="a_clust11"><a xlink:title="IDD0&#61;0.075000&#10;IDD02&#61;0.000000&#10;IDD2N&#61;0.050000&#10;IDD2N2&#61;0.000000&#10;IDD2P0&#61;0.000000&#10;IDD2P02&#61;0.000000&#10;IDD2P1&#61;0.000000&#10;IDD2P12&#61;0.000000&#10;IDD3N&#61;0.057000&#10;IDD3N2&#61;0.000000&#10;IDD3P0&#61;0.000000&#10;IDD3P02&#61;0.000000&#10;IDD3P1&#61;0.000000&#10;IDD3P12&#61;0.000000&#10;IDD4R&#61;0.187000&#10;IDD4R2&#61;0.000000&#10;IDD4W&#61;0.165000&#10;IDD4W2&#61;0.000000&#10;IDD5&#61;0.220000&#10;IDD52&#61;0.000000&#10;IDD6&#61;0.000000&#10;IDD62&#61;0.000000&#10;VDD&#61;1.500000&#10;VDD2&#61;0.000000&#10;activation_limit&#61;4&#10;addr_mapping&#61;RoRaBaCoCh&#10;bank_groups_per_rank&#61;0&#10;banks_per_rank&#61;8&#10;burst_length&#61;8&#10;channels&#61;1&#10;clk_domain&#61;system.clk_domain&#10;conf_table_reported&#61;true&#10;device_bus_width&#61;8&#10;device_rowbuffer_size&#61;1024&#10;device_size&#61;536870912&#10;devices_per_rank&#61;8&#10;dll&#61;true&#10;eventq_index&#61;0&#10;in_addr_map&#61;true&#10;max_accesses_per_row&#61;16&#10;mem_sched_policy&#61;frfcfs&#10;min_writes_per_switch&#61;16&#10;null&#61;false&#10;page_policy&#61;open_adaptive&#10;range&#61;0:536870911&#10;ranks_per_channel&#61;2&#10;read_buffer_size&#61;32&#10;static_backend_latency&#61;10000&#10;static_frontend_latency&#61;10000&#10;tBURST&#61;5000&#10;tCCD_L&#61;0&#10;tCK&#61;1250&#10;tCL&#61;13750&#10;tCS&#61;2500&#10;tRAS&#61;35000&#10;tRCD&#61;13750&#10;tREFI&#61;7800000&#10;tRFC&#61;260000&#10;tRP&#61;13750&#10;tRRD&#61;6000&#10;tRRD_L&#61;0&#10;tRTP&#61;7500&#10;tRTW&#61;2500&#10;tWR&#61;15000&#10;tWTR&#61;7500&#10;tXAW&#61;30000&#10;tXP&#61;0&#10;tXPDLL&#61;0&#10;tXS&#61;0&#10;tXSDLL&#61;0&#10;write_buffer_size&#61;64&#10;write_high_thresh_perc&#61;85&#10;write_low_thresh_perc&#61;50">
<path fill="#5e5958" stroke="#000000" d="M872,-420C872,-420 976,-420 976,-420 982,-420 988,-426 988,-432 988,-432 988,-500 988,-500 988,-506 982,-512 976,-512 976,-512 872,-512 872,-512 866,-512 860,-506 860,-500 860,-500 860,-432 860,-432 860,-426 866,-420 872,-420"/>
<text text-anchor="middle" x="924" y="-496.8" font-family="Arial" font-size="14.00" fill="#000000">mem_ctrls </text>
<text text-anchor="middle" x="924" y="-481.8" font-family="Arial" font-size="14.00" fill="#000000">: DDR3_1600_x64</text>
</a>
</g>
</g>
<g id="clust14" class="cluster"><title>cluster_system_cpu</title>
<g id="a_clust14"><a xlink:title="branchPred&#61;Null&#10;checker&#61;Null&#10;clk_domain&#61;system.cpu_clk_domain&#10;cpu_id&#61;0&#10;do_checkpoint_insts&#61;true&#10;do_quiesce&#61;true&#10;do_statistics_insts&#61;true&#10;dtb&#61;system.cpu.dtb&#10;eventq_index&#61;0&#10;function_trace&#61;false&#10;function_trace_start&#61;0&#10;interrupts&#61;system.cpu.interrupts&#10;isa&#61;system.cpu.isa&#10;itb&#61;system.cpu.itb&#10;max_insts_all_threads&#61;0&#10;max_insts_any_thread&#61;500000000&#10;max_loads_all_threads&#61;0&#10;max_loads_any_thread&#61;0&#10;numThreads&#61;1&#10;profile&#61;0&#10;progress_interval&#61;0&#10;simpoint_start_insts&#61;&#10;socket_id&#61;0&#10;switched_out&#61;false&#10;system&#61;system&#10;tracer&#61;system.cpu.tracer&#10;workload&#61;system.cpu.workload">
<path fill="#bbc6d9" stroke="#000000" d="M36,-280C36,-280 840,-280 840,-280 846,-280 852,-286 852,-292 852,-292 852,-592 852,-592 852,-598 846,-604 840,-604 840,-604 36,-604 36,-604 30,-604 24,-598 24,-592 24,-592 24,-292 24,-292 24,-286 30,-280 36,-280"/>
<text text-anchor="middle" x="438" y="-588.8" font-family="Arial" font-size="14.00" fill="#000000">cpu </text>
<text text-anchor="middle" x="438" y="-573.8" font-family="Arial" font-size="14.00" fill="#000000">: TimingSimpleCPU</text>
</a>
</g>
</g>
<g id="clust15" class="cluster"><title>cluster_system_cpu_icache</title>
<g id="a_clust15"><a xlink:title="addr_ranges&#61;0:18446744073709551615&#10;assoc&#61;1&#10;clk_domain&#61;system.cpu_clk_domain&#10;clusivity&#61;mostly_incl&#10;demand_mshr_reserve&#61;1&#10;eventq_index&#61;0&#10;forward_snoops&#61;true&#10;hit_latency&#61;2&#10;is_read_only&#61;true&#10;max_miss_count&#61;0&#10;mshrs&#61;4&#10;prefetch_on_access&#61;false&#10;prefetcher&#61;Null&#10;response_latency&#61;2&#10;sequential_access&#61;false&#10;size&#61;65536&#10;system&#61;system&#10;tags&#61;system.cpu.icache.tags&#10;tgts_per_mshr&#61;20&#10;write_buffers&#61;8&#10;writeback_clean&#61;true">
<path fill="#bab6ae" stroke="#000000" d="M240,-288C240,-288 402,-288 402,-288 408,-288 414,-294 414,-300 414,-300 414,-368 414,-368 414,-374 408,-380 402,-380 402,-380 240,-380 240,-380 234,-380 228,-374 228,-368 228,-368 228,-300 228,-300 228,-294 234,-288 240,-288"/>
<text text-anchor="middle" x="321" y="-364.8" font-family="Arial" font-size="14.00" fill="#000000">icache </text>
<text text-anchor="middle" x="321" y="-349.8" font-family="Arial" font-size="14.00" fill="#000000">: L1_ICache</text>
</a>
</g>
</g>
<g id="clust18" class="cluster"><title>cluster_system_cpu_dtb</title>
<g id="a_clust18"><a xlink:title="eventq_index&#61;0&#10;size&#61;64&#10;walker&#61;system.cpu.dtb.walker">
<path fill="#bab6ae" stroke="#000000" d="M688,-412C688,-412 832,-412 832,-412 838,-412 844,-418 844,-424 844,-424 844,-546 844,-546 844,-552 838,-558 832,-558 832,-558 688,-558 688,-558 682,-558 676,-552 676,-546 676,-546 676,-424 676,-424 676,-418 682,-412 688,-412"/>
<text text-anchor="middle" x="760" y="-542.8" font-family="Arial" font-size="14.00" fill="#000000">dtb </text>
<text text-anchor="middle" x="760" y="-527.8" font-family="Arial" font-size="14.00" fill="#000000">: X86TLB</text>
</a>
</g>
</g>
<g id="clust19" class="cluster"><title>cluster_system_cpu_dtb_walker</title>
<g id="a_clust19"><a xlink:title="clk_domain&#61;system.cpu_clk_domain&#10;eventq_index&#61;0&#10;num_squash_per_cycle&#61;4&#10;system&#61;system">
<path fill="#9f9c95" stroke="#000000" d="M696,-420C696,-420 824,-420 824,-420 830,-420 836,-426 836,-432 836,-432 836,-500 836,-500 836,-506 830,-512 824,-512 824,-512 696,-512 696,-512 690,-512 684,-506 684,-500 684,-500 684,-432 684,-432 684,-426 690,-420 696,-420"/>
<text text-anchor="middle" x="760" y="-496.8" font-family="Arial" font-size="14.00" fill="#000000">walker </text>
<text text-anchor="middle" x="760" y="-481.8" font-family="Arial" font-size="14.00" fill="#000000">: X86PagetableWalker</text>
</a>
</g>
</g>
<g id="clust20" class="cluster"><title>cluster_system_cpu_interrupts</title>
<g id="a_clust20"><a xlink:title="clk_domain&#61;system.cpu.apic_clk_domain&#10;eventq_index&#61;0&#10;int_latency&#61;1000&#10;pio_addr&#61;2305843009213693952&#10;pio_latency&#61;100000&#10;system&#61;system">
<path fill="#c7a793" stroke="#000000" d="M424,-420C424,-420 656,-420 656,-420 662,-420 668,-426 668,-432 668,-432 668,-500 668,-500 668,-506 662,-512 656,-512 656,-512 424,-512 424,-512 418,-512 412,-506 412,-500 412,-500 412,-432 412,-432 412,-426 418,-420 424,-420"/>
<text text-anchor="middle" x="540" y="-496.8" font-family="Arial" font-size="14.00" fill="#000000">interrupts </text>
<text text-anchor="middle" x="540" y="-481.8" font-family="Arial" font-size="14.00" fill="#000000">: X86LocalApic</text>
</a>
</g>
</g>
<g id="clust21" class="cluster"><title>cluster_system_cpu_itb_walker_cache</title>
<g id="a_clust21"><a xlink:title="addr_ranges&#61;0:18446744073709551615&#10;assoc&#61;2&#10;clk_domain&#61;system.cpu_clk_domain&#10;clusivity&#61;mostly_incl&#10;demand_mshr_reserve&#61;1&#10;eventq_index&#61;0&#10;forward_snoops&#61;false&#10;hit_latency&#61;2&#10;is_read_only&#61;false&#10;max_miss_count&#61;0&#10;mshrs&#61;10&#10;prefetch_on_access&#61;false&#10;prefetcher&#61;Null&#10;response_latency&#61;2&#10;sequential_access&#61;false&#10;size&#61;1024&#10;system&#61;system&#10;tags&#61;system.cpu.itb_walker_cache.tags&#10;tgts_per_mshr&#61;12&#10;write_buffers&#61;8&#10;writeback_clean&#61;false">
<path fill="#bab6ae" stroke="#000000" d="M434,-288C434,-288 596,-288 596,-288 602,-288 608,-294 608,-300 608,-300 608,-368 608,-368 608,-374 602,-380 596,-380 596,-380 434,-380 434,-380 428,-380 422,-374 422,-368 422,-368 422,-300 422,-300 422,-294 428,-288 434,-288"/>
<text text-anchor="middle" x="515" y="-364.8" font-family="Arial" font-size="14.00" fill="#000000">itb_walker_cache </text>
<text text-anchor="middle" x="515" y="-349.8" font-family="Arial" font-size="14.00" fill="#000000">: PageTableWalkerCache</text>
</a>
</g>
</g>
<g id="clust23" class="cluster"><title>cluster_system_cpu_itb</title>
<g id="a_clust23"><a xlink:title="eventq_index&#61;0&#10;size&#61;64&#10;walker&#61;system.cpu.itb.walker">
<path fill="#bab6ae" stroke="#000000" d="M248,-412C248,-412 392,-412 392,-412 398,-412 404,-418 404,-424 404,-424 404,-546 404,-546 404,-552 398,-558 392,-558 392,-558 248,-558 248,-558 242,-558 236,-552 236,-546 236,-546 236,-424 236,-424 236,-418 242,-412 248,-412"/>
<text text-anchor="middle" x="320" y="-542.8" font-family="Arial" font-size="14.00" fill="#000000">itb </text>
<text text-anchor="middle" x="320" y="-527.8" font-family="Arial" font-size="14.00" fill="#000000">: X86TLB</text>
</a>
</g>
</g>
<g id="clust24" class="cluster"><title>cluster_system_cpu_itb_walker</title>
<g id="a_clust24"><a xlink:title="clk_domain&#61;system.cpu_clk_domain&#10;eventq_index&#61;0&#10;num_squash_per_cycle&#61;4&#10;system&#61;system">
<path fill="#9f9c95" stroke="#000000" d="M256,-420C256,-420 384,-420 384,-420 390,-420 396,-426 396,-432 396,-432 396,-500 396,-500 396,-506 390,-512 384,-512 384,-512 256,-512 256,-512 250,-512 244,-506 244,-500 244,-500 244,-432 244,-432 244,-426 250,-420 256,-420"/>
<text text-anchor="middle" x="320" y="-496.8" font-family="Arial" font-size="14.00" fill="#000000">walker </text>
<text text-anchor="middle" x="320" y="-481.8" font-family="Arial" font-size="14.00" fill="#000000">: X86PagetableWalker</text>
</a>
</g>
</g>
<g id="clust25" class="cluster"><title>cluster_system_cpu_dtb_walker_cache</title>
<g id="a_clust25"><a xlink:title="addr_ranges&#61;0:18446744073709551615&#10;assoc&#61;2&#10;clk_domain&#61;system.cpu_clk_domain&#10;clusivity&#61;mostly_incl&#10;demand_mshr_reserve&#61;1&#10;eventq_index&#61;0&#10;forward_snoops&#61;false&#10;hit_latency&#61;2&#10;is_read_only&#61;false&#10;max_miss_count&#61;0&#10;mshrs&#61;10&#10;prefetch_on_access&#61;false&#10;prefetcher&#61;Null&#10;response_latency&#61;2&#10;sequential_access&#61;false&#10;size&#61;1024&#10;system&#61;system&#10;tags&#61;system.cpu.dtb_walker_cache.tags&#10;tgts_per_mshr&#61;12&#10;write_buffers&#61;8&#10;writeback_clean&#61;false">
<path fill="#bab6ae" stroke="#000000" d="M649,-288C649,-288 811,-288 811,-288 817,-288 823,-294 823,-300 823,-300 823,-368 823,-368 823,-374 817,-380 811,-380 811,-380 649,-380 649,-380 643,-380 637,-374 637,-368 637,-368 637,-300 637,-300 637,-294 643,-288 649,-288"/>
<text text-anchor="middle" x="730" y="-364.8" font-family="Arial" font-size="14.00" fill="#000000">dtb_walker_cache </text>
<text text-anchor="middle" x="730" y="-349.8" font-family="Arial" font-size="14.00" fill="#000000">: PageTableWalkerCache</text>
</a>
</g>
</g>
<g id="clust28" class="cluster"><title>cluster_system_cpu_dcache</title>
<g id="a_clust28"><a xlink:title="addr_ranges&#61;0:18446744073709551615&#10;assoc&#61;1&#10;clk_domain&#61;system.cpu_clk_domain&#10;clusivity&#61;mostly_incl&#10;demand_mshr_reserve&#61;1&#10;eventq_index&#61;0&#10;forward_snoops&#61;true&#10;hit_latency&#61;2&#10;is_read_only&#61;false&#10;max_miss_count&#61;0&#10;mshrs&#61;4&#10;prefetch_on_access&#61;false&#10;prefetcher&#61;Null&#10;response_latency&#61;2&#10;sequential_access&#61;false&#10;size&#61;131072&#10;system&#61;system&#10;tags&#61;system.cpu.dcache.tags&#10;tgts_per_mshr&#61;20&#10;write_buffers&#61;8&#10;writeback_clean&#61;false">
<path fill="#bab6ae" stroke="#000000" d="M46,-288C46,-288 208,-288 208,-288 214,-288 220,-294 220,-300 220,-300 220,-368 220,-368 220,-374 214,-380 208,-380 208,-380 46,-380 46,-380 40,-380 34,-374 34,-368 34,-368 34,-300 34,-300 34,-294 40,-288 46,-288"/>
<text text-anchor="middle" x="127" y="-364.8" font-family="Arial" font-size="14.00" fill="#000000">dcache </text>
<text text-anchor="middle" x="127" y="-349.8" font-family="Arial" font-size="14.00" fill="#000000">: L1_DCache</text>
</a>
</g>
</g>
<!-- system_system_port -->
<g id="node1" class="node"><title>system_system_port</title>
<path fill="#b6b8bc" stroke="#000000" d="M586.5,-753C586.5,-753 653.5,-753 653.5,-753 659.5,-753 665.5,-759 665.5,-765 665.5,-765 665.5,-777 665.5,-777 665.5,-783 659.5,-789 653.5,-789 653.5,-789 586.5,-789 586.5,-789 580.5,-789 574.5,-783 574.5,-777 574.5,-777 574.5,-765 574.5,-765 574.5,-759 580.5,-753 586.5,-753"/>
<text text-anchor="middle" x="620" y="-767.3" font-family="Arial" font-size="14.00" fill="#000000">system_port</text>
</g>
<!-- system_membus_slave -->
<g id="node3" class="node"><title>system_membus_slave</title>
<path fill="#586070" stroke="#000000" d="M605,-621C605,-621 635,-621 635,-621 641,-621 647,-627 647,-633 647,-633 647,-645 647,-645 647,-651 641,-657 635,-657 635,-657 605,-657 605,-657 599,-657 593,-651 593,-645 593,-645 593,-633 593,-633 593,-627 599,-621 605,-621"/>
<text text-anchor="middle" x="620" y="-635.3" font-family="Arial" font-size="14.00" fill="#000000">slave</text>
</g>
<!-- system_system_port&#45;&gt;system_membus_slave -->
<g id="edge1" class="edge"><title>system_system_port&#45;&gt;system_membus_slave</title>
<path fill="none" stroke="black" d="M620,-752.737C620,-730.981 620,-693.322 620,-667.564"/>
<polygon fill="black" stroke="black" points="623.5,-667.334 620,-657.334 616.5,-667.334 623.5,-667.334"/>
</g>
<!-- system_membus_master -->
<g id="node2" class="node"><title>system_membus_master</title>
<path fill="#586070" stroke="#000000" d="M527.5,-621C527.5,-621 562.5,-621 562.5,-621 568.5,-621 574.5,-627 574.5,-633 574.5,-633 574.5,-645 574.5,-645 574.5,-651 568.5,-657 562.5,-657 562.5,-657 527.5,-657 527.5,-657 521.5,-657 515.5,-651 515.5,-645 515.5,-645 515.5,-633 515.5,-633 515.5,-627 521.5,-621 527.5,-621"/>
<text text-anchor="middle" x="545" y="-635.3" font-family="Arial" font-size="14.00" fill="#000000">master</text>
</g>
<!-- system_cpu_interrupts_pio -->
<g id="node16" class="node"><title>system_cpu_interrupts_pio</title>
<path fill="#9f8575" stroke="#000000" d="M432,-429C432,-429 462,-429 462,-429 468,-429 474,-435 474,-441 474,-441 474,-453 474,-453 474,-459 468,-465 462,-465 462,-465 432,-465 432,-465 426,-465 420,-459 420,-453 420,-453 420,-441 420,-441 420,-435 426,-429 432,-429"/>
<text text-anchor="middle" x="447" y="-443.3" font-family="Arial" font-size="14.00" fill="#000000">pio</text>
</g>
<!-- system_membus_master&#45;&gt;system_cpu_interrupts_pio -->
<g id="edge2" class="edge"><title>system_membus_master&#45;&gt;system_cpu_interrupts_pio</title>
<path fill="none" stroke="black" d="M515.457,-627.943C503.744,-622.558 491.151,-614.766 483,-604 454.237,-566.006 447.853,-508.934 446.774,-475.379"/>
<polygon fill="black" stroke="black" points="450.273,-475.298 446.589,-465.364 443.275,-475.427 450.273,-475.298"/>
</g>
<!-- system_cpu_interrupts_int_slave -->
<g id="node14" class="node"><title>system_cpu_interrupts_int_slave</title>
<path fill="#9f8575" stroke="#000000" d="M504,-429C504,-429 550,-429 550,-429 556,-429 562,-435 562,-441 562,-441 562,-453 562,-453 562,-459 556,-465 550,-465 550,-465 504,-465 504,-465 498,-465 492,-459 492,-453 492,-453 492,-441 492,-441 492,-435 498,-429 504,-429"/>
<text text-anchor="middle" x="527" y="-443.3" font-family="Arial" font-size="14.00" fill="#000000">int_slave</text>
</g>
<!-- system_membus_master&#45;&gt;system_cpu_interrupts_int_slave -->
<g id="edge3" class="edge"><title>system_membus_master&#45;&gt;system_cpu_interrupts_int_slave</title>
<path fill="none" stroke="black" d="M543.371,-620.804C540.232,-587.668 533.323,-514.746 529.562,-475.046"/>
<polygon fill="black" stroke="black" points="533.04,-474.646 528.612,-465.021 526.071,-475.306 533.04,-474.646"/>
</g>
<!-- system_mem_ctrls_port -->
<g id="node8" class="node"><title>system_mem_ctrls_port</title>
<path fill="#4b4746" stroke="#000000" d="M880,-429C880,-429 910,-429 910,-429 916,-429 922,-435 922,-441 922,-441 922,-453 922,-453 922,-459 916,-465 910,-465 910,-465 880,-465 880,-465 874,-465 868,-459 868,-453 868,-453 868,-441 868,-441 868,-435 874,-429 880,-429"/>
<text text-anchor="middle" x="895" y="-443.3" font-family="Arial" font-size="14.00" fill="#000000">port</text>
</g>
<!-- system_membus_master&#45;&gt;system_mem_ctrls_port -->
<g id="edge4" class="edge"><title>system_membus_master&#45;&gt;system_mem_ctrls_port</title>
<path fill="none" stroke="black" d="M566.163,-620.843C571.666,-617.266 577.8,-613.984 584,-612 611.105,-603.329 817.031,-620.801 840,-604 880.75,-574.192 891.469,-511.749 894.186,-475.555"/>
<polygon fill="black" stroke="black" points="897.7,-475.42 894.797,-465.231 890.713,-475.006 897.7,-475.42"/>
</g>
<!-- system_tol2bus_master -->
<g id="node4" class="node"><title>system_tol2bus_master</title>
<path fill="#586070" stroke="#000000" d="M617.5,-165C617.5,-165 652.5,-165 652.5,-165 658.5,-165 664.5,-171 664.5,-177 664.5,-177 664.5,-189 664.5,-189 664.5,-195 658.5,-201 652.5,-201 652.5,-201 617.5,-201 617.5,-201 611.5,-201 605.5,-195 605.5,-189 605.5,-189 605.5,-177 605.5,-177 605.5,-171 611.5,-165 617.5,-165"/>
<text text-anchor="middle" x="635" y="-179.3" font-family="Arial" font-size="14.00" fill="#000000">master</text>
</g>
<!-- system_l2_cpu_side -->
<g id="node7" class="node"><title>system_l2_cpu_side</title>
<path fill="#94918b" stroke="#000000" d="M721.5,-33C721.5,-33 768.5,-33 768.5,-33 774.5,-33 780.5,-39 780.5,-45 780.5,-45 780.5,-57 780.5,-57 780.5,-63 774.5,-69 768.5,-69 768.5,-69 721.5,-69 721.5,-69 715.5,-69 709.5,-63 709.5,-57 709.5,-57 709.5,-45 709.5,-45 709.5,-39 715.5,-33 721.5,-33"/>
<text text-anchor="middle" x="745" y="-47.3" font-family="Arial" font-size="14.00" fill="#000000">cpu_side</text>
</g>
<!-- system_tol2bus_master&#45;&gt;system_l2_cpu_side -->
<g id="edge5" class="edge"><title>system_tol2bus_master&#45;&gt;system_l2_cpu_side</title>
<path fill="none" stroke="black" d="M649.607,-164.737C668.592,-142.301 701.886,-102.953 723.69,-77.1849"/>
<polygon fill="black" stroke="black" points="726.545,-79.2291 730.332,-69.3344 721.201,-74.7075 726.545,-79.2291"/>
</g>
<!-- system_tol2bus_slave -->
<g id="node5" class="node"><title>system_tol2bus_slave</title>
<path fill="#586070" stroke="#000000" d="M545,-165C545,-165 575,-165 575,-165 581,-165 587,-171 587,-177 587,-177 587,-189 587,-189 587,-195 581,-201 575,-201 575,-201 545,-201 545,-201 539,-201 533,-195 533,-189 533,-189 533,-177 533,-177 533,-171 539,-165 545,-165"/>
<text text-anchor="middle" x="560" y="-179.3" font-family="Arial" font-size="14.00" fill="#000000">slave</text>
</g>
<!-- system_l2_mem_side -->
<g id="node6" class="node"><title>system_l2_mem_side</title>
<path fill="#94918b" stroke="#000000" d="M811,-33C811,-33 867,-33 867,-33 873,-33 879,-39 879,-45 879,-45 879,-57 879,-57 879,-63 873,-69 867,-69 867,-69 811,-69 811,-69 805,-69 799,-63 799,-57 799,-57 799,-45 799,-45 799,-39 805,-33 811,-33"/>
<text text-anchor="middle" x="839" y="-47.3" font-family="Arial" font-size="14.00" fill="#000000">mem_side</text>
</g>
<!-- system_l2_mem_side&#45;&gt;system_membus_slave -->
<g id="edge6" class="edge"><title>system_l2_mem_side&#45;&gt;system_membus_slave</title>
<path fill="none" stroke="black" d="M853.63,-69.237C914.956,-143.579 1141.34,-440.391 992,-604 969.71,-628.42 746.88,-635.509 657.148,-637.383"/>
<polygon fill="black" stroke="black" points="657.065,-633.884 647.137,-637.582 657.204,-640.883 657.065,-633.884"/>
</g>
<!-- system_cpu_icache_port -->
<g id="node9" class="node"><title>system_cpu_icache_port</title>
<path fill="#959ead" stroke="#000000" d="M154,-429C154,-429 216,-429 216,-429 222,-429 228,-435 228,-441 228,-441 228,-453 228,-453 228,-459 222,-465 216,-465 216,-465 154,-465 154,-465 148,-465 142,-459 142,-453 142,-453 142,-441 142,-441 142,-435 148,-429 154,-429"/>
<text text-anchor="middle" x="185" y="-443.3" font-family="Arial" font-size="14.00" fill="#000000">icache_port</text>
</g>
<!-- system_cpu_icache_cpu_side -->
<g id="node12" class="node"><title>system_cpu_icache_cpu_side</title>
<path fill="#94918b" stroke="#000000" d="M248.5,-297C248.5,-297 295.5,-297 295.5,-297 301.5,-297 307.5,-303 307.5,-309 307.5,-309 307.5,-321 307.5,-321 307.5,-327 301.5,-333 295.5,-333 295.5,-333 248.5,-333 248.5,-333 242.5,-333 236.5,-327 236.5,-321 236.5,-321 236.5,-309 236.5,-309 236.5,-303 242.5,-297 248.5,-297"/>
<text text-anchor="middle" x="272" y="-311.3" font-family="Arial" font-size="14.00" fill="#000000">cpu_side</text>
</g>
<!-- system_cpu_icache_port&#45;&gt;system_cpu_icache_cpu_side -->
<g id="edge7" class="edge"><title>system_cpu_icache_port&#45;&gt;system_cpu_icache_cpu_side</title>
<path fill="none" stroke="black" d="M196.553,-428.737C211.438,-406.495 237.445,-367.633 254.696,-341.857"/>
<polygon fill="black" stroke="black" points="257.746,-343.592 260.399,-333.334 251.929,-339.698 257.746,-343.592"/>
</g>
<!-- system_cpu_dcache_port -->
<g id="node10" class="node"><title>system_cpu_dcache_port</title>
<path fill="#959ead" stroke="#000000" d="M44.5,-429C44.5,-429 111.5,-429 111.5,-429 117.5,-429 123.5,-435 123.5,-441 123.5,-441 123.5,-453 123.5,-453 123.5,-459 117.5,-465 111.5,-465 111.5,-465 44.5,-465 44.5,-465 38.5,-465 32.5,-459 32.5,-453 32.5,-453 32.5,-441 32.5,-441 32.5,-435 38.5,-429 44.5,-429"/>
<text text-anchor="middle" x="78" y="-443.3" font-family="Arial" font-size="14.00" fill="#000000">dcache_port</text>
</g>
<!-- system_cpu_dcache_cpu_side -->
<g id="node23" class="node"><title>system_cpu_dcache_cpu_side</title>
<path fill="#94918b" stroke="#000000" d="M54.5,-297C54.5,-297 101.5,-297 101.5,-297 107.5,-297 113.5,-303 113.5,-309 113.5,-309 113.5,-321 113.5,-321 113.5,-327 107.5,-333 101.5,-333 101.5,-333 54.5,-333 54.5,-333 48.5,-333 42.5,-327 42.5,-321 42.5,-321 42.5,-309 42.5,-309 42.5,-303 48.5,-297 54.5,-297"/>
<text text-anchor="middle" x="78" y="-311.3" font-family="Arial" font-size="14.00" fill="#000000">cpu_side</text>
</g>
<!-- system_cpu_dcache_port&#45;&gt;system_cpu_dcache_cpu_side -->
<g id="edge8" class="edge"><title>system_cpu_dcache_port&#45;&gt;system_cpu_dcache_cpu_side</title>
<path fill="none" stroke="black" d="M78,-428.737C78,-406.981 78,-369.322 78,-343.564"/>
<polygon fill="black" stroke="black" points="81.5001,-343.334 78,-333.334 74.5001,-343.334 81.5001,-343.334"/>
</g>
<!-- system_cpu_icache_mem_side -->
<g id="node11" class="node"><title>system_cpu_icache_mem_side</title>
<path fill="#94918b" stroke="#000000" d="M338,-297C338,-297 394,-297 394,-297 400,-297 406,-303 406,-309 406,-309 406,-321 406,-321 406,-327 400,-333 394,-333 394,-333 338,-333 338,-333 332,-333 326,-327 326,-321 326,-321 326,-309 326,-309 326,-303 332,-297 338,-297"/>
<text text-anchor="middle" x="366" y="-311.3" font-family="Arial" font-size="14.00" fill="#000000">mem_side</text>
</g>
<!-- system_cpu_icache_mem_side&#45;&gt;system_tol2bus_slave -->
<g id="edge9" class="edge"><title>system_cpu_icache_mem_side&#45;&gt;system_tol2bus_slave</title>
<path fill="none" stroke="black" d="M391.762,-296.737C426.208,-273.654 487.368,-232.671 525.69,-206.991"/>
<polygon fill="black" stroke="black" points="528.082,-209.602 534.441,-201.127 524.185,-203.787 528.082,-209.602"/>
</g>
<!-- system_cpu_dtb_walker_port -->
<g id="node13" class="node"><title>system_cpu_dtb_walker_port</title>
<path fill="#7f7c77" stroke="#000000" d="M704,-429C704,-429 734,-429 734,-429 740,-429 746,-435 746,-441 746,-441 746,-453 746,-453 746,-459 740,-465 734,-465 734,-465 704,-465 704,-465 698,-465 692,-459 692,-453 692,-453 692,-441 692,-441 692,-435 698,-429 704,-429"/>
<text text-anchor="middle" x="719" y="-443.3" font-family="Arial" font-size="14.00" fill="#000000">port</text>
</g>
<!-- system_cpu_dtb_walker_cache_cpu_side -->
<g id="node21" class="node"><title>system_cpu_dtb_walker_cache_cpu_side</title>
<path fill="#94918b" stroke="#000000" d="M657.5,-297C657.5,-297 704.5,-297 704.5,-297 710.5,-297 716.5,-303 716.5,-309 716.5,-309 716.5,-321 716.5,-321 716.5,-327 710.5,-333 704.5,-333 704.5,-333 657.5,-333 657.5,-333 651.5,-333 645.5,-327 645.5,-321 645.5,-321 645.5,-309 645.5,-309 645.5,-303 651.5,-297 657.5,-297"/>
<text text-anchor="middle" x="681" y="-311.3" font-family="Arial" font-size="14.00" fill="#000000">cpu_side</text>
</g>
<!-- system_cpu_dtb_walker_port&#45;&gt;system_cpu_dtb_walker_cache_cpu_side -->
<g id="edge10" class="edge"><title>system_cpu_dtb_walker_port&#45;&gt;system_cpu_dtb_walker_cache_cpu_side</title>
<path fill="none" stroke="black" d="M713.954,-428.737C707.566,-406.884 696.488,-368.986 688.957,-343.22"/>
<polygon fill="black" stroke="black" points="692.232,-341.951 686.067,-333.334 685.513,-343.915 692.232,-341.951"/>
</g>
<!-- system_cpu_interrupts_int_master -->
<g id="node15" class="node"><title>system_cpu_interrupts_int_master</title>
<path fill="#9f8575" stroke="#000000" d="M592,-429C592,-429 648,-429 648,-429 654,-429 660,-435 660,-441 660,-441 660,-453 660,-453 660,-459 654,-465 648,-465 648,-465 592,-465 592,-465 586,-465 580,-459 580,-453 580,-453 580,-441 580,-441 580,-435 586,-429 592,-429"/>
<text text-anchor="middle" x="620" y="-443.3" font-family="Arial" font-size="14.00" fill="#000000">int_master</text>
</g>
<!-- system_cpu_interrupts_int_master&#45;&gt;system_membus_slave -->
<g id="edge11" class="edge"><title>system_cpu_interrupts_int_master&#45;&gt;system_membus_slave</title>
<path fill="none" stroke="black" d="M620,-465.021C620,-498.015 620,-570.925 620,-610.742"/>
<polygon fill="black" stroke="black" points="616.5,-610.804 620,-620.804 623.5,-610.804 616.5,-610.804"/>
</g>
<!-- system_cpu_itb_walker_cache_mem_side -->
<g id="node17" class="node"><title>system_cpu_itb_walker_cache_mem_side</title>
<path fill="#94918b" stroke="#000000" d="M532,-297C532,-297 588,-297 588,-297 594,-297 600,-303 600,-309 600,-309 600,-321 600,-321 600,-327 594,-333 588,-333 588,-333 532,-333 532,-333 526,-333 520,-327 520,-321 520,-321 520,-309 520,-309 520,-303 526,-297 532,-297"/>
<text text-anchor="middle" x="560" y="-311.3" font-family="Arial" font-size="14.00" fill="#000000">mem_side</text>
</g>
<!-- system_cpu_itb_walker_cache_mem_side&#45;&gt;system_tol2bus_slave -->
<g id="edge12" class="edge"><title>system_cpu_itb_walker_cache_mem_side&#45;&gt;system_tol2bus_slave</title>
<path fill="none" stroke="black" d="M560,-296.737C560,-274.981 560,-237.322 560,-211.564"/>
<polygon fill="black" stroke="black" points="563.5,-211.334 560,-201.334 556.5,-211.334 563.5,-211.334"/>
</g>
<!-- system_cpu_itb_walker_cache_cpu_side -->
<g id="node18" class="node"><title>system_cpu_itb_walker_cache_cpu_side</title>
<path fill="#94918b" stroke="#000000" d="M442.5,-297C442.5,-297 489.5,-297 489.5,-297 495.5,-297 501.5,-303 501.5,-309 501.5,-309 501.5,-321 501.5,-321 501.5,-327 495.5,-333 489.5,-333 489.5,-333 442.5,-333 442.5,-333 436.5,-333 430.5,-327 430.5,-321 430.5,-321 430.5,-309 430.5,-309 430.5,-303 436.5,-297 442.5,-297"/>
<text text-anchor="middle" x="466" y="-311.3" font-family="Arial" font-size="14.00" fill="#000000">cpu_side</text>
</g>
<!-- system_cpu_itb_walker_port -->
<g id="node19" class="node"><title>system_cpu_itb_walker_port</title>
<path fill="#7f7c77" stroke="#000000" d="M346,-429C346,-429 376,-429 376,-429 382,-429 388,-435 388,-441 388,-441 388,-453 388,-453 388,-459 382,-465 376,-465 376,-465 346,-465 346,-465 340,-465 334,-459 334,-453 334,-453 334,-441 334,-441 334,-435 340,-429 346,-429"/>
<text text-anchor="middle" x="361" y="-443.3" font-family="Arial" font-size="14.00" fill="#000000">port</text>
</g>
<!-- system_cpu_itb_walker_port&#45;&gt;system_cpu_itb_walker_cache_cpu_side -->
<g id="edge13" class="edge"><title>system_cpu_itb_walker_port&#45;&gt;system_cpu_itb_walker_cache_cpu_side</title>
<path fill="none" stroke="black" d="M376.332,-428.906C388,-415.741 404.326,-396.981 418,-380 428.094,-367.465 438.884,-353.165 447.672,-341.267"/>
<polygon fill="black" stroke="black" points="450.582,-343.218 453.679,-333.086 444.939,-339.075 450.582,-343.218"/>
</g>
<!-- system_cpu_dtb_walker_cache_mem_side -->
<g id="node20" class="node"><title>system_cpu_dtb_walker_cache_mem_side</title>
<path fill="#94918b" stroke="#000000" d="M747,-297C747,-297 803,-297 803,-297 809,-297 815,-303 815,-309 815,-309 815,-321 815,-321 815,-327 809,-333 803,-333 803,-333 747,-333 747,-333 741,-333 735,-327 735,-321 735,-321 735,-309 735,-309 735,-303 741,-297 747,-297"/>
<text text-anchor="middle" x="775" y="-311.3" font-family="Arial" font-size="14.00" fill="#000000">mem_side</text>
</g>
<!-- system_cpu_dtb_walker_cache_mem_side&#45;&gt;system_tol2bus_slave -->
<g id="edge14" class="edge"><title>system_cpu_dtb_walker_cache_mem_side&#45;&gt;system_tol2bus_slave</title>
<path fill="none" stroke="black" d="M753.593,-296.985C745.089,-290.9 734.968,-284.453 725,-280 671.067,-255.904 642.998,-283.786 596,-248 583.634,-238.584 574.881,-223.62 569.105,-210.529"/>
<polygon fill="black" stroke="black" points="572.248,-208.967 565.257,-201.006 565.758,-211.589 572.248,-208.967"/>
</g>
<!-- system_cpu_dcache_mem_side -->
<g id="node22" class="node"><title>system_cpu_dcache_mem_side</title>
<path fill="#94918b" stroke="#000000" d="M144,-297C144,-297 200,-297 200,-297 206,-297 212,-303 212,-309 212,-309 212,-321 212,-321 212,-327 206,-333 200,-333 200,-333 144,-333 144,-333 138,-333 132,-327 132,-321 132,-321 132,-309 132,-309 132,-303 138,-297 144,-297"/>
<text text-anchor="middle" x="172" y="-311.3" font-family="Arial" font-size="14.00" fill="#000000">mem_side</text>
</g>
<!-- system_cpu_dcache_mem_side&#45;&gt;system_tol2bus_slave -->
<g id="edge15" class="edge"><title>system_cpu_dcache_mem_side&#45;&gt;system_tol2bus_slave</title>
<path fill="none" stroke="black" d="M194.95,-296.856C203.706,-290.9 213.994,-284.573 224,-280 327.491,-232.701 459.694,-203.179 522.985,-190.774"/>
<polygon fill="black" stroke="black" points="523.742,-194.193 532.898,-188.861 522.416,-187.319 523.742,-194.193"/>
</g>
</g>
</svg>
